<svg width="32" height="32" viewBox="0 0 32 32" fill="none" xmlns="http://www.w3.org/2000/svg">
<rect width="32" height="32" rx="16" fill="#738FBA"/>
<path fill-rule="evenodd" clip-rule="evenodd" d="M20.375 11.3931C20.375 14.1351 19.3654 18.1875 16 18.1875C12.6346 18.1875 11.625 14.1351 11.625 11.3931C11.625 8.93236 13.5838 6.9375 16 6.9375C18.4162 6.9375 20.375 8.93236 20.375 11.3931ZM19.4375 11.3931C19.4375 12.6758 19.1975 14.2178 18.6098 15.4017C18.0358 16.558 17.2104 17.25 16 17.25C14.7896 17.25 13.9642 16.558 13.3902 15.4017C12.8025 14.2178 12.5625 12.6758 12.5625 11.3931C12.5625 9.43391 14.1176 7.875 16 7.875C17.8824 7.875 19.4375 9.43391 19.4375 11.3931Z" fill="white"/>
<path d="M14.125 18.5L16 21L16.9375 19.75V21.3125L16 22.5625L13.7485 19.5605L10.403 20.3969C8.73361 20.8142 7.5625 22.3141 7.5625 24.0349V26H6.625V24.0349C6.625 21.8839 8.08889 20.009 10.1756 19.4873L14.125 18.5Z" fill="white"/>
<path fill-rule="evenodd" clip-rule="evenodd" d="M21.7031 17.875H22.3281L22.6273 18.8723C23.0504 18.9563 23.4427 19.1256 23.7855 19.3617L24.6444 18.8992L25.0863 19.3411L24.6192 20.2086C24.8602 20.5708 25.0276 20.9861 25.1001 21.4332L26 21.7031V22.3281L25.0686 22.6075C24.9724 23.048 24.7833 23.4537 24.5228 23.8032L24.9758 24.6444L24.5339 25.0864L23.6423 24.6063C23.2891 24.822 22.8898 24.9696 22.4626 25.0308L22.1719 26H21.5469L21.2362 24.9645C20.8496 24.8653 20.4918 24.6939 20.1782 24.4655L19.2306 24.9758L18.7887 24.5339L19.3278 23.5326C19.1402 23.2171 19.0065 22.8657 18.9395 22.4912L17.875 22.1719V21.5469L18.9741 21.2172C19.0613 20.8475 19.2141 20.5032 19.4197 20.1972L18.8992 19.2306L19.3411 18.7886L20.3169 19.3141C20.6425 19.1028 21.0099 18.9505 21.4039 18.8723L21.7031 17.875ZM22.0156 24.125C23.2237 24.125 24.2031 23.1456 24.2031 21.9375C24.2031 20.7294 23.2237 19.75 22.0156 19.75C20.8075 19.75 19.8281 20.7294 19.8281 21.9375C19.8281 23.1456 20.8075 24.125 22.0156 24.125Z" fill="white"/>
</svg>
